<svg version="1.1" id="svg2" xmlns:cc="http://creativecommons.org/ns#" xmlns:dc="http://purl.org/dc/elements/1.1/" xmlns:inkscape="http://www.inkscape.org/namespaces/inkscape" xmlns:rdf="http://www.w3.org/1999/02/22-rdf-syntax-ns#" xmlns:sodipodi="http://sodipodi.sourceforge.net/DTD/sodipodi-0.dtd" xmlns:svg="http://www.w3.org/2000/svg" xmlns="http://www.w3.org/2000/svg" xmlns:xlink="http://www.w3.org/1999/xlink" x="0px" y="0px" viewBox="0 0 1333.3 356.7" style="enable-background:new 0 0 1333.3 356.7;" xml:space="preserve">
 <style type="text/css">
  .st0{fill:#FFFFFF;}
 </style>
 <g id="g10" transform="matrix(1.3333333,0,0,-1.3333333,0,356.70667)" inkscape:groupmode="layer" inkscape:label="ink_ext_XXXXXX">
  <g id="g12" transform="scale(0.1)">
   <path id="path14" class="st0" d="M9948.4,2212.8c-35.5,39.9-82.7,59.9-146.7,59.9c-64,0-112.7-21.3-146.9-65.1
			c-33.9-42.4-51.6-106-51.6-189.7v-605c-78.7,85-160.3,146-243.1,187.2c-51.9,25.1-112.8,43.6-180.8,53c-39.6,5.3-80.2,8-124.9,8
			c-208,0-376.3-71.7-505.5-214.9c-127.7-143.4-191.5-342.4-191.5-598.3c0-120.9,16.3-233.6,48.7-337.2
			C8439,407.1,8484.9,317,8547.7,240c62.5-77,137.1-135.2,222.8-177.8C8856,21.1,8948.4,0,9049,0c46.3,0,89.5,3.8,130.5,11.7
			c27.1,4.2,52.9,10.8,78.8,18.8c63.8,21.1,123.5,51.6,177.9,90c55.7,39.9,111.5,91.6,167.1,154v-39.8c0-75.7,19-132.6,55.7-173.7
			C9697,21.1,9744.6,0,9801.7,0c58.4,0,106,19.7,142.6,58.2c36.6,39.8,55.7,98.1,55.7,176.5V2039
			C10000,2114.7,9982.3,2173.1,9948.4,2212.8 M9525.8,543.8c-36.8-77-85.5-134-145.2-171.1c-61.2-37.2-127.9-55.7-201.2-55.7h-1.3
			c-73.4,0-140,19.8-201.3,58.3c-61,39.7-110.1,98.2-145.3,175.1c-35.2,78.3-52.9,172.5-52.9,283.9c0,104.8,16.2,197.7,50.2,275.9
			c32.7,79.6,80.2,140.7,140,183.2c61.1,43.8,129.1,63.7,206.5,63.7h4c72,0,138.5-21.2,199.7-62.3c61.1-41.1,109.9-101,146.7-179.2
			c36.7-78.3,54.3-172.5,54.3-281.3C9580.1,717.7,9562.5,620.7,9525.8,543.8">
   </path>
   <path id="path16" class="st0" d="M8228.3,526.5c-25.6,22.6-61,34.5-104.6,34.5c-39.4,0-69.2-9.3-91-26.5
			c-52.9-47.8-95-86.1-127.7-114.1c-32.5-26.6-69.2-53.1-108.7-78.2c-37.9-23.8-78.7-42.6-119.2-53.2
			c-42.3-11.8-87.2-17.1-137.4-17.1c-10.9,0-21.9,0-31.2,1.4c-62.5,3.9-120.9,21.3-173.8,53.1c-62.7,35.8-111.5,88.7-149.6,157.7
			c-36.7,71.7-55.6,153.9-56.9,246.7h819.1c110,0,195.5,16.1,255.6,45.3c61,31.8,90.9,98.1,90.9,200.2
			c0,111.5-29.9,220.3-88.3,327.6c-58.5,106.2-145.4,193.8-263.6,261.4c-117.1,67.6-256.9,100.8-421.2,100.8h-12.2
			c-120.9-1.3-232.4-21.3-331.5-58.4c-103.2-39.8-190.2-96.8-262.3-169.8c-69.1-74.3-123.5-163.2-160.1-266.7
			c-36.6-103.6-55.8-216.3-55.8-337c0-257.5,74.8-459.1,224.2-609c141.1-142,336.9-216.3,585.5-224.1c13.6-1.3,28.4-1.3,43.5-1.3
			c116.8,0,221.5,14.4,312.4,44.9c91.1,30.6,165.7,67.9,225.8,112.8c59.5,46.5,104.4,94.1,134.1,143.4c30.1,49,45,92.8,45,128.7
			C8269.1,470.8,8255.6,504,8228.3,526.5 M7250.2,1276.2c66.4,70.3,152.1,104.8,256.6,104.8h1.5c108.6,0,197-34.5,263.5-103.4
			c66.8-69,106-173.9,115.6-314.5H7128C7141.5,1101.1,7182.3,1206,7250.2,1276.2">
   </path>
   <path id="path18" class="st0" d="M6447.2,561.1c-40.7,0-70.7-9.3-92.3-26.5c-51.8-47.8-95.1-86.2-127.8-114.1
			c-32.5-26.6-67.9-53.1-107.3-78.2c-39.3-23.8-78.8-42.6-120.9-53.2c-40.8-11.8-87-17.1-137.2-17.1c-10.8,0-21.7,0-31.1,1.4
			c-62.6,3.9-121.1,21.3-174,53.1c-61,35.8-111.4,88.7-148,157.7c-38.2,71.7-57.2,153.9-58.5,246.7h820.6
			c108.8,0,194.3,16.1,255.5,45.3c59.9,31.8,89.6,98.1,89.6,200.2c0,111.5-28.5,220.3-86.9,327.6
			c-58.5,106.2-146.8,193.8-263.4,261.4c-117.3,67.6-258.3,100.8-421.2,100.8h-13.7c-121.1-1.3-231.1-21.3-331.5-58.4
			c-103.4-39.8-190.3-96.8-260.9-169.8c-70.6-74.3-125-163.2-161.6-266.7c-36.8-103.6-55.8-216.3-55.8-337
			c0-257.5,76.1-459.1,225.7-609c141.1-142,335.5-216.3,584.1-224.1C5845.4,0,5858.9,0,5874,0c118.1,0,221.5,14.4,312.2,44.9
			c91.1,30.6,165.9,67.9,225.6,112.8c61.1,46.5,104.6,94.1,134.6,143.4c30,49,44.8,92.8,44.8,128.7c0,41-13.5,74.2-39.2,96.7
			C6524.8,549.1,6489.3,561.1,6447.2,561.1 M5572.4,1276.2c66.4,70.3,151.9,104.8,256.7,104.8h1.5c108.6,0,196.9-34.5,263.6-103.4
			c67.8-69,105.9-173.9,116.8-314.5H5450C5465,1101.1,5505.8,1206,5572.4,1276.2">
   </path>
   <path id="path20" class="st0" d="M872.8,271.9v976.4c28.5-2.5,55.7-3.8,84.2-3.8c135.8,0,263.7,35.8,372.3,99.5v-1072
			c0-91.5-21.8-159.2-63.8-204.4c-42-45-97.9-67.5-165.8-67.5c-66.6,0-119.6,22.5-163.1,68.8C894.6,114,872.8,181.8,872.8,271.9">
   </path>
   <path id="path22" class="st0" d="M4819.6,2212.8c-35.5,39.9-84.2,59.9-145.4,59.9c-63.8,0-112.8-21.3-146.8-65.1
			c-35.1-42.4-51.6-106-51.6-189.7v-605c-78.8,85-160.3,146-243.2,187.2c-52.8,25.1-112.7,43.6-180.6,53c-39.4,5.3-80.2,8-124.9,8
			c-208,0-377.8-71.7-505.4-214.9c-127.7-143.4-191.7-342.4-191.7-598.3c0-120.9,16.5-233.6,47.5-337.2
			c32.7-103.5,80.2-193.6,142.9-270.7c62.4-77,137.1-135.2,222.9-177.8c85.5-41,177.8-62.1,278.3-62.1c44.8,0,88.4,3.8,130.5,11.7
			c27.1,4.2,53,10.8,78.8,18.8c63.8,21.1,123.6,51.6,177.9,90c55.7,39.9,110.1,91.6,167,154v-39.8c0-75.7,19.1-132.6,55.8-173.7
			C4568.3,21.1,4617.1,0,4674.2,0c55.6,0,104.6,19.7,141.5,58.2c36.6,39.8,54.2,98.1,54.2,176.5V2039
			C4869.8,2114.7,4853.7,2173.1,4819.6,2212.8 M4398.3,543.8c-36.6-77-85.5-134-146.5-171.1C4191.9,335.5,4124,317,4052,317h-1.5
			c-73.1,0-139.9,19.8-201,58.3c-62.5,39.7-110.1,98.2-145.5,175.1c-35.2,78.3-52.9,172.5-52.9,283.9c0,104.8,16.5,197.7,48.9,275.9
			c34,79.6,80.1,140.7,141.3,183.2c59.9,43.8,129,63.7,205.2,63.7h5.4c72,0,138.5-21.2,198.3-62.3c62.5-41.1,111.5-101,148-179.2
			c35.3-78.3,54.5-172.5,54.5-281.3C4452.8,717.7,4433.5,620.7,4398.3,543.8">
   </path>
   <path id="path24" class="st0" d="M1999.1,1438.1v-50.5c74.7,95.6,154.9,164.6,241.9,209.7c88.3,43.7,188.8,66.4,302.9,66.4
			c110.1,0,209.2-23.9,296.2-70.4c87-46.4,150.8-112.8,194.3-199.1c28.6-50.3,46.2-104.8,54.3-163.1c8.2-57,12.2-131.2,12.2-221.5
			V249.2c0-82.2-20.3-144.4-58.4-185.6C3004.5,21.1,2954.1,0,2893,0c-62.4,0-112.6,21.1-152.1,64.9
			c-39.4,42.5-58.3,104.7-58.3,184.3v680.8c0,135.2-19.1,238.7-57.2,310.4c-38,71.6-115.5,107.5-229.5,107.5
			c-74.8,0-142.8-22.7-203.9-65c-61-43.8-107.3-103.4-135.9-180.4c-20.3-61.1-29.9-173.8-29.9-342.4V249.2
			c0-83.5-20.1-144.4-59.6-187.1c-39.5-41-89.7-62.1-152.2-62.1c-61,0-110.1,21.1-149.5,64.9c-39.4,42.5-58.5,104.7-58.5,184.3
			v1182.2c0,78.2,17.7,136.6,53.1,173.7c34,38.4,81.4,58.5,142.7,58.5c36.7,0,69.2-7.9,99-25.4c30.1-17.1,54.4-42.4,72.1-76.9
			C1990.9,1527.1,1999.1,1485.8,1999.1,1438.1">
   </path>
   <path id="path26" class="st0" d="M875.4,2612.1c282.6,99.6,604.6,94.3,846.4-110c45-41.1,96.5-92.9,116.9-153.9
			c24.5-76.9-85.5,8.1-100.6,18.5c-78.8,50.5-157.6,92.9-245.8,122.2c-475.5,143.2-925.4-115.5-1205.1-517.5
			c-116.8-177.8-193-364.7-255.5-570.4c-6.7-22.7-12.2-51.9-24.6-71.6c-12.2-22.8-5.4,60.8-5.4,63.6c9.4,84.8,27.2,167.1,49,249.4
			C179.9,2080.3,465.1,2445.1,875.4,2612.1">
   </path>
   <path id="path28" class="st0" d="M1243.7,1525.7c-169.8-84.9-377.8-18.7-463.4,147.2c-87,165.9-18.9,368.8,150.8,452.4
			c169.9,84.9,377.9,18.6,463.4-147.3C1481.5,1812.1,1413.6,1609.2,1243.7,1525.7">
   </path>
  </g>
 </g>
</svg>